<svg width="255" height="94" viewBox="0 0 255 94" fill="none" xmlns="http://www.w3.org/2000/svg">
<line x1="180.754" y1="17.5501" x2="165.754" y2="63.5501" stroke="black" stroke-width="10"/>
<circle cx="35.5" cy="42.5" r="31" fill="white" stroke="black" stroke-width="9"/>
<path d="M94.6114 62.1695L78.1114 62.1871L78.0619 15.6416L94.6982 15.624C99.3801 15.619 103.411 16.5465 106.792 18.4065C110.173 20.2514 112.774 22.9078 114.596 26.3755C116.433 29.8433 117.354 33.9938 117.359 38.8271C117.364 43.6756 116.452 47.8433 114.623 51.3301C112.808 54.8168 110.197 57.4939 106.79 59.3611C103.398 61.2284 99.3386 62.1645 94.6114 62.1695ZM87.9433 53.7448L94.1933 53.7381C97.1024 53.7351 99.5488 53.2173 101.533 52.1849C103.531 51.1373 105.03 49.5221 106.027 47.3392C107.04 45.1411 107.545 42.3073 107.541 38.8376C107.537 35.3982 107.027 32.5881 106.009 30.4074C105.007 28.2266 103.513 26.6222 101.527 25.594C99.5411 24.5658 97.0936 24.0532 94.1845 24.0563L87.9118 24.063L87.9433 53.7448ZM124.674 62.1376L124.624 15.5921L155.988 15.5588L155.997 23.6724L134.474 23.6953L134.486 34.7862L154.395 34.765L154.403 42.8787L134.494 42.8998L134.506 54.0135L156.12 53.9905L156.128 62.1041L124.674 62.1376ZM187.033 15.5258L198.321 50.8774L198.753 50.877L209.988 15.5014L220.897 15.4898L204.901 62.0523L192.219 62.0657L176.102 15.5374L187.033 15.5258Z" fill="#FF3F00"/>
<line x1="82.5" y1="62" x2="82.5" y2="85" stroke="black" stroke-width="9"/>
<path d="M35.5 8L37.6651 14.75H33.3349L35.5 8Z" fill="#D9D9D9"/>
<path d="M49.0784 11.1578L48.5672 18.3721L44.4044 16.2269L49.0784 11.1578Z" fill="#D9D9D9"/>
<path d="M22.0287 11.0207L26.235 16.4841L21.8986 18.2519L22.0287 11.0207Z" fill="#D9D9D9"/>
<path d="M11.0401 17.8321L16.6311 21.3854L13.0739 24.6922L11.0401 17.8321Z" fill="#D9D9D9"/>
<path d="M59.5985 17.8207L57.5891 24.69L54.0202 21.3992L59.5985 17.8207Z" fill="#D9D9D9"/>
<path d="M66.9955 29.0629L62.536 34.2652L60.5912 29.5537L66.9955 29.0629Z" fill="#D9D9D9"/>
<path d="M60.7407 66.5293L54.902 63.5242L58.1969 59.8888L60.7407 66.5293Z" fill="#D9D9D9"/>
<path d="M23.0009 74.5988L22.6365 67.3777L27.0274 68.9659L23.0009 74.5988Z" fill="#D9D9D9"/>
<path d="M66.8533 55.9813L60.4951 54.9877L62.7271 50.4407L66.8533 55.9813Z" fill="#D9D9D9"/>
<path d="M50.1452 73.5289L45.6973 68.3139L49.9483 66.2995L50.1452 73.5289Z" fill="#D9D9D9"/>
<path d="M10.9141 66.8218L13.0002 59.9816L16.532 63.3228L10.9141 66.8218Z" fill="#D9D9D9"/>
<path d="M1 42L7 39.4019V44.5981L1 42Z" fill="#D9D9D9"/>
<path d="M3.91463 28.342L10.2639 29.4055L7.99257 33.9277L3.91463 28.342Z" fill="#D9D9D9"/>
<path d="M3.88423 55.8018L8.45039 50.7184L10.2969 55.4798L3.88423 55.8018Z" fill="#D9D9D9"/>
<path d="M70 42L64 44.5981V39.4019L70 42Z" fill="#D9D9D9"/>
<path d="M35.5 77L33.3349 70.25H37.6651L35.5 77Z" fill="#D9D9D9"/>
</svg>
